<svg id="elIBvUyXrit1" xmlns="http://www.w3.org/2000/svg" xmlns:xlink="http://www.w3.org/1999/xlink" viewBox="0 0 800 350" shape-rendering="geometricPrecision" text-rendering="geometricPrecision" width="800" height="350" style="background-color:rgb(0,0,0)"><defs><filter id="elIBvUyXrit2-filter" x="-400%" width="600%" y="-400%" height="600%"><feGaussianBlur id="elIBvUyXrit2-filter-blur-0" stdDeviation="1,1" result="result"/></filter><filter id="elIBvUyXrit3-filter" x="-400%" width="600%" y="-400%" height="600%"><feGaussianBlur id="elIBvUyXrit3-filter-blur-0" stdDeviation="1,1" result="result"/></filter><filter id="elIBvUyXrit4-filter" x="-400%" width="600%" y="-400%" height="600%"><feGaussianBlur id="elIBvUyXrit4-filter-blur-0" stdDeviation="1,1" result="result"/></filter><filter id="elIBvUyXrit5-filter" x="-400%" width="600%" y="-400%" height="600%"><feGaussianBlur id="elIBvUyXrit5-filter-blur-0" stdDeviation="1,1" result="result"/></filter><filter id="elIBvUyXrit6-filter" x="-400%" width="600%" y="-400%" height="600%"><feGaussianBlur id="elIBvUyXrit6-filter-blur-0" stdDeviation="1,1" result="result"/></filter><filter id="elIBvUyXrit9-filter" x="-400%" width="600%" y="-400%" height="600%"><feGaussianBlur id="elIBvUyXrit9-filter-blur-0" stdDeviation="2,2" result="result"/></filter><filter id="elIBvUyXrit13-filter" x="-400%" width="600%" y="-400%" height="600%"><feGaussianBlur id="elIBvUyXrit13-filter-drop-shadow-0-blur" in="SourceAlpha" stdDeviation="0,0"/><feOffset id="elIBvUyXrit13-filter-drop-shadow-0-offset" dx="0" dy="0" result="tmp"/><feFlood id="elIBvUyXrit13-filter-drop-shadow-0-flood" flood-color="rgb(41,91,38)"/><feComposite id="elIBvUyXrit13-filter-drop-shadow-0-composite" operator="in" in2="tmp"/><feMerge id="elIBvUyXrit13-filter-drop-shadow-0-merge"><feMergeNode id="elIBvUyXrit13-filter-drop-shadow-0-merge-node-1"/><feMergeNode id="elIBvUyXrit13-filter-drop-shadow-0-merge-node-2" in="SourceGraphic"/></feMerge></filter><filter id="elIBvUyXrit22-filter" x="-400%" width="600%" y="-400%" height="600%"><feGaussianBlur id="elIBvUyXrit22-filter-blur-0" stdDeviation="2,2" result="result"/></filter><filter id="elIBvUyXrit24-filter" x="-400%" width="600%" y="-400%" height="600%"><feGaussianBlur id="elIBvUyXrit24-filter-blur-0" stdDeviation="2,2" result="result"/></filter><filter id="elIBvUyXrit26-filter" x="-400%" width="600%" y="-400%" height="600%"><feGaussianBlur id="elIBvUyXrit26-filter-blur-0" stdDeviation="2,2" result="result"/></filter><filter id="elIBvUyXrit28-filter" x="-400%" width="600%" y="-400%" height="600%"><feGaussianBlur id="elIBvUyXrit28-filter-blur-0" stdDeviation="2,2" result="result"/></filter><filter id="elIBvUyXrit35-filter" x="-400%" width="600%" y="-400%" height="600%"><feGaussianBlur id="elIBvUyXrit35-filter-blur-0" stdDeviation="8,8" result="result"/></filter><radialGradient id="elIBvUyXrit35-fill" cx="0" cy="0" r="0.757246" spreadMethod="pad" gradientUnits="objectBoundingBox" gradientTransform="matrix(1 0 0 1 0.5 0.5)"><stop id="elIBvUyXrit35-fill-0" offset="6%" stop-color="rgb(0,0,0)"/><stop id="elIBvUyXrit35-fill-1" offset="100%" stop-color="rgba(0,0,0,0)"/><stop id="elIBvUyXrit35-fill-2" offset="100%" stop-color="rgba(0,0,0,0.29912553191489355)"/></radialGradient></defs><path id="elIBvUyXrit2" d="M71.972635,-94.985104L66.869684,-85.445626" transform="matrix(1.370251 0 0 1 441.379447 124.985105)" filter="url(#elIBvUyXrit2-filter)" fill="none" stroke="rgb(255,0,0)" stroke-width="2" stroke-linecap="round" stroke-linejoin="round" stroke-dasharray="2,1,2,1"/><path id="elIBvUyXrit3" d="M71.972635,-94.985104L66.869684,-85.445626" transform="matrix(1.370251 0 0 1 441.379447 124.985105)" filter="url(#elIBvUyXrit3-filter)" fill="none" stroke="rgb(197,197,197)" stroke-width="2" stroke-linecap="round" stroke-linejoin="round" stroke-dasharray="2,1,2,1"/><path id="elIBvUyXrit4" d="M71.972635,-94.985104L68.97895,-85.445626" transform="matrix(1.370251 0 0 1 441.379447 124.985105)" filter="url(#elIBvUyXrit4-filter)" fill="none" stroke="rgb(0,255,103)" stroke-width="2" stroke-linecap="round" stroke-linejoin="round" stroke-dasharray="2,1,2,1"/><path id="elIBvUyXrit5" d="M71.972635,-94.985104L71.510058,-85.445626" transform="matrix(1.370251 0 0 1 441.379447 124.985105)" filter="url(#elIBvUyXrit5-filter)" fill="none" stroke="rgb(0,123,255)" stroke-width="3" stroke-linecap="round" stroke-linejoin="round" stroke-dasharray="2,1,2,1"/><path id="elIBvUyXrit6" d="M71.972635,-94.985104L76.57228,-88.335845" transform="matrix(1.370251 0 0 1 441.379447 124.985105)" filter="url(#elIBvUyXrit6-filter)" fill="none" stroke="rgb(255,251,0)" stroke-width="2" stroke-linecap="round" stroke-linejoin="round" stroke-dasharray="2,1,2,1"/><g id="elIBvUyXrit7" transform="matrix(1 0 0 1 -0.000018 3)"><path id="elIBvUyXrit8" d="M94.0644,98.788L140.9664,145.69L149.367,137.2894L201.869,189.7914L158.467,233.1934L166.8676,241.594L110.8646,297.597L63.9626,250.695L55.5623,259.0953L3.0593,206.5923L49.9613,159.6903L41.561,151.29L94.0644,98.788Z" transform="matrix(1 0 0 1 60 10)" fill="none" fill-opacity="0.5" stroke="rgb(197,197,197)" stroke-width="2" stroke-linecap="round" stroke-linejoin="round" stroke-dashoffset="609.84" stroke-dasharray="609.84"/><path id="elIBvUyXrit9" d="M94.0644,98.788L140.9664,145.69L149.367,137.2894L201.869,189.7914L158.467,233.1934L166.8676,241.594L110.8646,297.597L63.9626,250.695L55.5623,259.0953L3.0593,206.5923L49.9613,159.6903L41.561,151.29L94.0644,98.788Z" transform="matrix(1 0 0 1 60 10)" filter="url(#elIBvUyXrit9-filter)" fill="none" fill-opacity="0.5" stroke="none" stroke-width="9" stroke-linecap="round" stroke-linejoin="round" stroke-dashoffset="609.84" stroke-dasharray="4,605.84"/><g id="elIBvUyXrit10"><g id="elIBvUyXrit11"><g id="elIBvUyXrit12" opacity="0"><path id="elIBvUyXrit13" d="M94.0644,98.788L140.9664,145.69L149.367,137.2894L201.869,189.7914L158.467,233.1934L166.8676,241.594L110.8646,297.597L63.9626,250.695L55.5623,259.0953L3.0593,206.5923L49.9613,159.6903L41.561,151.29L94.0644,98.788Z" transform="matrix(1.04 0 0 1.04 55.901434 2.0723)" filter="url(#elIBvUyXrit13-filter)" fill="rgb(82,181,75)" fill-opacity="0.5" stroke="rgba(0,0,0,0.55)" stroke-width="1.0434" stroke-dashoffset="609.84" stroke-dasharray="609.84"/><path id="elIBvUyXrit14" d="M76.911,138.46L76.911,100.514L76.911,62.568L142.635,100.514L109.773,119.487Z" transform="matrix(1 0 0 1 62.464 105.929)" fill="rgb(255,255,255)" stroke="none" stroke-width="1"/></g></g></g></g><g id="elIBvUyXrit15" transform="matrix(1 0 0 1 59.999982 110.000009)"><g id="elIBvUyXrit16" transform="matrix(1.0006 0 0 0.99935 -0.000001 0.000001)"/><g id="elIBvUyXrit17"/><g id="elIBvUyXrit18"/><g id="elIBvUyXrit19"><g id="elIBvUyXrit20"><path id="elIBvUyXrit21" d="M398.87,146.1L398.87,99.155C398.87,87.597,406.1606,77.461,417.897,77.461C429.633,77.461,434.434,87.2411,434.434,98.799L434.434,146.099L456.128,146.099L456.128,98.799C456.128,72.482,443.858,57.189,418.964,57.189C407.584,57.189,397.448,60.7454,389.624,73.193C384.645,61.101,374.154,56.834,363.662,56.834C355.3044,56.834,345.169,60.0348,340.545,68.926L338.9446,58.257L318.8506,58.257L318.8506,146.1L340.5446,146.1L340.5446,99.155C340.5446,87.597,347.4796,77.105,359.2156,77.105C371.1296,77.105,377.1756,87.596,377.1756,99.155L377.1756,146.1Z" transform="matrix(1 0 0 1 -2.7759 0)" fill="none" stroke="rgb(0,255,103)" stroke-width="2" stroke-dashoffset="705.12" stroke-dasharray="705.12"/><path id="elIBvUyXrit22" d="M398.87,146.1L398.87,99.155C398.87,87.597,406.1606,77.461,417.897,77.461C429.633,77.461,434.434,87.2411,434.434,98.799L434.434,146.099L456.128,146.099L456.128,98.799C456.128,72.482,443.858,57.189,418.964,57.189C407.584,57.189,397.448,60.7454,389.624,73.193C384.645,61.101,374.154,56.834,363.662,56.834C355.3044,56.834,345.169,60.0348,340.545,68.926L338.9446,58.257L318.8506,58.257L318.8506,146.1L340.5446,146.1L340.5446,99.155C340.5446,87.597,347.4796,77.105,359.2156,77.105C371.1296,77.105,377.1756,87.596,377.1756,99.155L377.1756,146.1Z" transform="matrix(1 0 0 1 -2.7759 0)" filter="url(#elIBvUyXrit22-filter)" fill="none" stroke="none" stroke-width="9" stroke-dashoffset="705.12" stroke-dasharray="7,698.12"/><path id="elIBvUyXrit23" d="M309.02,109.97C312.4686,73.125,293.774,54.611,263.825,54.611C234.784,54.611,216.271,74.213,216.271,101.439C216.271,130.117,234.603,149.175,265.459,149.175C279.072,149.175,294.5,144.4559,303.938,134.655L289.781,120.679C284.6989,125.9426,273.99,129.0282,265.822,129.0282C250.213,129.0282,240.593,121.042,239.141,109.9702ZM239.504,91.638C242.7711,80.022,252.572,74.214,264.552,74.214C277.257,74.214,286.332,80.0221,287.785,91.638Z" fill="none" stroke="rgb(255,0,0)" stroke-width="2" stroke-dashoffset="542.76" stroke-dasharray="542.76"/><path id="elIBvUyXrit24" d="M309.02,109.97C312.4686,73.125,293.774,54.611,263.825,54.611C234.784,54.611,216.271,74.213,216.271,101.439C216.271,130.117,234.603,149.175,265.459,149.175C279.072,149.175,294.5,144.4559,303.938,134.655L289.781,120.679C284.6989,125.9426,273.99,129.0282,265.822,129.0282C250.213,129.0282,240.593,121.042,239.141,109.9702ZM239.504,91.638C242.7711,80.022,252.572,74.214,264.552,74.214C277.257,74.214,286.332,80.0221,287.785,91.638Z" filter="url(#elIBvUyXrit24-filter)" fill="none" stroke="rgb(255,0,0)" stroke-width="9" stroke-dashoffset="600" stroke-dasharray="7,535.76"/><path id="elIBvUyXrit25" d="M516.34,76.786C530.236,76.786,541.281,86.5844,541.281,102.44C541.281,117.761,530.236,128.272,516.34,128.272C502.622,128.272,490.864,118.2954,490.864,102.44C490.864,87.119,502.622,76.786,516.34,76.786ZM467.704,21.915L467.704,146.445L488.013,146.445L489.4382,134.331C496.208,144.842,507.0752,148.405,517.7642,148.405C543.5962,148.405,563.0152,131.302,563.0152,102.442C563.0152,72.156,543.9532,56.479,518.2992,56.479C509.0352,56.479,494.6052,61.4673,489.4382,70.553L489.4382,21.917Z" transform="matrix(1 0 0 1 -2.7759 0)" fill="none" stroke="rgb(0,123,255)" stroke-width="2" stroke-dashoffset="600.19" stroke-dasharray="600.19"/><path id="elIBvUyXrit26" d="M516.34,76.786C530.236,76.786,541.281,86.5844,541.281,102.44C541.281,117.761,530.236,128.272,516.34,128.272C502.622,128.272,490.864,118.2954,490.864,102.44C490.864,87.119,502.622,76.786,516.34,76.786ZM467.704,21.915L467.704,146.445L488.013,146.445L489.4382,134.331C496.208,144.842,507.0752,148.405,517.7642,148.405C543.5962,148.405,563.0152,131.302,563.0152,102.442C563.0152,72.156,543.9532,56.479,518.2992,56.479C509.0352,56.479,494.6052,61.4673,489.4382,70.553L489.4382,21.917Z" transform="matrix(1 0 0 1 -2.7759 0)" filter="url(#elIBvUyXrit26-filter)" fill="none" stroke="none" stroke-width="9" stroke-dashoffset="650" stroke-dasharray="7,593.19"/><path id="elIBvUyXrit27" d="M632.42,57.968L616.38,96.464L607.2907,120.702L598.9143,95.929L585.5473,57.968L560.2393,57.968L595.3493,144.406L578.9533,182.546L602.8353,182.546L656.4803,57.966Z" fill="none" stroke="rgb(255,251,0)" stroke-width="2" stroke-dashoffset="477.69" stroke-dasharray="477.69"/><path id="elIBvUyXrit28" d="M632.42,57.968L616.38,96.464L607.2907,120.702L598.9143,95.929L585.5473,57.968L560.2393,57.968L595.3493,144.406L578.9533,182.546L602.8353,182.546L656.4803,57.966Z" filter="url(#elIBvUyXrit28-filter)" fill="none" stroke="none" stroke-width="9" stroke-dashoffset="477.69" stroke-dasharray="7,470.69"/></g><g id="elIBvUyXrit29" transform="matrix(1 0 0 1 0 -200)"><g id="elIBvUyXrit30" transform="matrix(1 0 0 1 0 200)" opacity="0"><path id="elIBvUyXrit31" d="M398.87,146.1L398.87,99.155C398.87,87.597,406.1606,77.461,417.897,77.461C429.633,77.461,434.434,87.2411,434.434,98.799L434.434,146.099L456.128,146.099L456.128,98.799C456.128,72.482,443.858,57.189,418.964,57.189C407.584,57.189,397.448,60.7454,389.624,73.193C384.645,61.101,374.154,56.834,363.662,56.834C355.3044,56.834,345.169,60.0348,340.545,68.926L338.9446,58.257L318.8506,58.257L318.8506,146.1L340.5446,146.1L340.5446,99.155C340.5446,87.597,347.4796,77.105,359.2156,77.105C371.1296,77.105,377.1756,87.596,377.1756,99.155L377.1756,146.1Z" transform="matrix(1 0 0 1 -2.7759 0)" fill="rgb(255,255,255)" stroke="none" stroke-width="0.92615"/><path id="elIBvUyXrit32" d="M309.02,109.97C312.4686,73.125,293.774,54.611,263.825,54.611C234.784,54.611,216.271,74.213,216.271,101.439C216.271,130.117,234.603,149.175,265.459,149.175C279.072,149.175,294.5,144.4559,303.938,134.655L289.781,120.679C284.6989,125.9426,273.99,129.0282,265.822,129.0282C250.213,129.0282,240.593,121.042,239.141,109.9702ZM239.504,91.638C242.7711,80.022,252.572,74.214,264.552,74.214C277.257,74.214,286.332,80.0221,287.785,91.638Z" fill="rgb(255,255,255)" stroke="none" stroke-width="1.2965"/><path id="elIBvUyXrit33" d="M516.34,76.786C530.236,76.786,541.281,86.5844,541.281,102.44C541.281,117.761,530.236,128.272,516.34,128.272C502.622,128.272,490.864,118.2954,490.864,102.44C490.864,87.119,502.622,76.786,516.34,76.786ZM467.704,21.915L467.704,146.445L488.013,146.445L489.4382,134.331C496.208,144.842,507.0752,148.405,517.7642,148.405C543.5962,148.405,563.0152,131.302,563.0152,102.442C563.0152,72.156,543.9532,56.479,518.2992,56.479C509.0352,56.479,494.6052,61.4673,489.4382,70.553L489.4382,21.917Z" transform="matrix(1 0 0 1 -2.7759 0)" fill="rgb(255,255,255)" stroke="none" stroke-width="1.2025"/><path id="elIBvUyXrit34" d="M632.42,57.968L616.38,96.464L607.2907,120.702L598.9143,95.929L585.5473,57.968L560.2393,57.968L595.3493,144.406L578.9533,182.546L602.8353,182.546L656.4803,57.966Z" fill="rgb(255,255,255)" stroke="none" stroke-width="4.4556"/></g></g></g><ellipse id="elIBvUyXrit35" rx="38.164427" ry="38.164427" transform="matrix(0.708544 0 0 0.702082 478.303387 -72.768441)" filter="url(#elIBvUyXrit35-filter)" fill="url(#elIBvUyXrit35-fill)" stroke="none" stroke-width="0"/></g><path id="elIBvUyXrit36" d="" fill="none" stroke="rgb(63,87,135)" stroke-width="1.6"/><path id="elIBvUyXrit37" d="" fill="none" stroke="rgb(63,87,135)" stroke-width="1.6"/><script><![CDATA[(function(s,i,u,o,c,w,d,t,n,x,e,p){w[o]=w[o]||{};w[o][s]=w[o][s]||[];w[o][s].push(i);e=d.createElementNS(n,t);e.async=true;e.setAttributeNS(x,'href',[u,s,'.','j','s','?','v','=',c].join(''));e.setAttributeNS(null,'src',[u,s,'.','j','s'].join(''));p=d.getElementsByTagName(t)[0];p.parentNode.insertBefore(e,p);})('7c8cb2ed',{"root":"elIBvUyXrit1","animations":[{"elements":{"elIBvUyXrit2":{"d":[{"t":0,"v":["M",71.972635,-94.985104,"L",66.869684,-85.445626]},{"t":200,"v":["M",71.972635,-94.985104,"L",-51.575845,91.277704]},{"t":300,"v":["M",71.972635,-94.985104,"L",-52.527251,72.765682]},{"t":400,"v":["M",71.972635,-94.985104,"L",-58.045405,56.860986]},{"t":500,"v":["M",71.972635,-94.985104,"L",-66.227477,44.606549]},{"t":600,"v":["M",71.972635,-94.985104,"L",-79.547151,39.913361]},{"t":700,"v":["M",71.972635,-94.985104,"L",-91.915412,40.695559]},{"t":800,"v":["M",71.972635,-94.985104,"L",-105.235079,46.692411]},{"t":900,"v":["M",71.972635,-94.985104,"L",-114.039006,58.461222]},{"t":1000,"v":["M",71.972635,-94.985104,"L",-119.453118,75.600959]},{"t":1100,"v":["M",71.972635,-94.985104,"L",-118.893029,92.484878]},{"t":1200,"v":["M",71.972635,-94.985104,"L",-114.412378,110.903699]},{"t":1300,"v":["M",71.972635,-94.985104,"L",-106.384559,124.717815]},{"t":1400,"v":["M",71.972635,-94.985104,"L",-94.622873,132.648141]},{"t":1500,"v":["M",71.972635,-94.985104,"L",-81.554321,133.671409]},{"t":1600,"v":["M",71.972635,-94.985104,"L",-67.739008,129.578337]},{"t":1700,"v":["M",71.972635,-94.985104,"L",-56.350697,120.880561]},{"t":1800,"v":["M",71.972635,-94.985104,"L",-63.631771,109.11298]},{"t":1900,"v":["M",71.972635,-94.985104,"L",-74.273292,111.926967]},{"t":2000,"v":["M",71.972635,-94.985104,"L",-86.595063,113.206052]},{"t":2100,"v":["M",71.972635,-94.985104,"L",-98.730131,105.275726]},{"t":2200,"v":["M",71.972635,-94.985104,"L",-101.903926,95.298865]},{"t":2300,"v":["M",71.972635,-94.985104,"L",-85.661574,95.554681]},{"t":2400,"v":["M",71.972635,-94.985104,"L",-72.779729,94.531414]},{"t":2500,"v":["M",71.972635,-94.985104,"L",-61.204736,95.810498]},{"t":2600,"v":["M",71.972635,-94.985104,"L",-54.110377,94.787231]}],"stroke":[{"t":2600,"v":{"t":"c","v":{"r":255,"g":0,"b":0,"a":1}}},{"t":2700,"v":null}]},"elIBvUyXrit3":{"d":[{"t":0,"v":["M",71.972635,-94.985104,"L",66.869684,-85.445626]},{"t":200,"v":["M",71.972635,-94.985104,"L",-206.987297,-12.06562]},{"t":300,"v":["M",71.972635,-94.985104,"L",-197.993123,2.459419]},{"t":400,"v":["M",71.972635,-94.985104,"L",-186.750403,16.984458]},{"t":500,"v":["M",71.972635,-94.985104,"L",-176.471343,31.94965]},{"t":600,"v":["M",71.972635,-94.985104,"L",-165.871067,27.548123]},{"t":700,"v":["M",71.972635,-94.985104,"L",-155.270796,42.953468]},{"t":800,"v":["M",71.972635,-94.985104,"L",-144.991737,57.91866]},{"t":900,"v":["M",71.972635,-94.985104,"L",-134.07024,72.003546]},{"t":1000,"v":["M",71.972635,-94.985104,"L",-137.603671,87.408891]},{"t":1100,"v":["M",71.972635,-94.985104,"L",-147.882727,101.493778]},{"t":1200,"v":["M",71.972635,-94.985104,"L",-158.161778,115.578664]},{"t":1300,"v":["M",71.972635,-94.985104,"L",-156.555676,130.543856]},{"t":1400,"v":["M",71.972635,-94.985104,"L",-166.723148,145.822929]},{"t":1500,"v":["M",71.972635,-94.985104,"L",-176.634779,158.24848]},{"t":1600,"v":["M",71.972635,-94.985104,"L",-187.841375,173.243121]},{"t":1700,"v":["M",71.972635,-94.985104,"L",-197.726638,184.530867]},{"t":1800,"v":["M",71.972635,-94.985104,"L",-207.200018,169.856797]},{"t":1900,"v":["M",71.972635,-94.985104,"L",-219.144718,155.747115]},{"t":2000,"v":["M",71.972635,-94.985104,"L",-228.206206,140.508658]},{"t":2100,"v":["M",71.972635,-94.985104,"L",-239.739019,143.330595]},{"t":2200,"v":["M",71.972635,-94.985104,"L",-250.448054,129.220912]},{"t":2300,"v":["M",71.972635,-94.985104,"L",-261.157093,112.853681]},{"t":2400,"v":["M",71.972635,-94.985104,"L",-270.218588,102.69471]},{"t":2500,"v":["M",71.972635,-94.985104,"L",-268.571045,86.327478]},{"t":2600,"v":["M",71.972635,-94.985104,"L",-258.685773,72.217796]},{"t":2700,"v":["M",71.972635,-94.985104,"L",-248.800511,58.108114]},{"t":2800,"v":["M",71.972635,-94.985104,"L",-245.093536,44.562819]},{"t":2900,"v":["M",71.972635,-94.985104,"L",-239.327133,28.195587]},{"t":3000,"v":["M",71.972635,-94.985104,"L",-229.029983,14.650292]},{"t":3100,"v":["M",71.972635,-94.985104,"L",-218.320942,0.54061]},{"t":3200,"v":["M",71.972635,-94.985104,"L",-208.435673,-10.747136]}],"stroke":[{"t":200,"v":{"t":"c","v":{"r":197,"g":197,"b":197,"a":1}}},{"t":3200,"v":{"t":"c","v":{"r":197,"g":197,"b":197,"a":1}}},{"t":3300,"v":null}]},"elIBvUyXrit4":{"d":[{"t":0,"v":["M",71.972635,-94.985104,"L",68.97895,-85.445626]},{"t":200,"v":["M",71.972635,-94.985104,"L",8.768233,131.084166]},{"t":300,"v":["M",71.972635,-94.985104,"L",10.507349,105.551747]},{"t":400,"v":["M",71.972635,-94.985104,"L",11.499503,79.174397]},{"t":500,"v":["M",71.972635,-94.985104,"L",20.806317,63.542078]},{"t":600,"v":["M",71.972635,-94.985104,"L",35.817329,70.946861]},{"t":700,"v":["M",71.972635,-94.985104,"L",37.376805,93.903973]},{"t":800,"v":["M",71.972635,-94.985104,"L",37.376803,117.04392]},{"t":900,"v":["M",71.972635,-94.985104,"L",44.256853,129.899446]},{"t":1000,"v":["M",71.972635,-94.985104,"L",52.804778,117.04392]},{"t":1100,"v":["M",71.972635,-94.985104,"L",53.013264,94.189652]},{"t":1200,"v":["M",71.972635,-94.985104,"L",52.387805,71.335383]},{"t":1300,"v":["M",71.972635,-94.985104,"L",44.67381,51.05222]},{"t":1400,"v":["M",71.972635,-94.985104,"L",29.245841,41.339156]},{"t":1500,"v":["M",71.972635,-94.985104,"L",12.566951,45.338653]},{"t":1600,"v":["M",71.972635,-94.985104,"L",2.142643,53.337647]},{"t":1700,"v":["M",71.972635,-94.985104,"L",-13.076848,42.481869]},{"t":1800,"v":["M",71.972635,-94.985104,"L",-27.670879,47.62408]},{"t":1900,"v":["M",71.972635,-94.985104,"L",-36.427301,42.767548]},{"t":2000,"v":["M",71.972635,-94.985104,"L",-47.268574,51.05222]},{"t":2100,"v":["M",71.972635,-94.985104,"L",-46.851602,77.334629]},{"t":2200,"v":["M",71.972635,-94.985104,"L",-46.434629,99.617541]},{"t":2300,"v":["M",71.972635,-94.985104,"L",-47.060088,123.614523]},{"t":2400,"v":["M",71.972635,-94.985104,"L",-35.176376,130.470803]},{"t":2500,"v":["M",71.972635,-94.985104,"L",-31.21514,111.616032]},{"t":2600,"v":["M",71.972635,-94.985104,"L",-32.049085,88.761763]},{"t":2700,"v":["M",71.972635,-94.985104,"L",-27.045413,68.192921]},{"t":2800,"v":["M",71.972635,-94.985104,"L",-11.200466,65.907494]},{"t":2900,"v":["M",71.972635,-94.985104,"L",-3.903453,84.190909]},{"t":3000,"v":["M",71.972635,-94.985104,"L",-4.528914,107.902213]},{"t":3100,"v":["M",71.972635,-94.985104,"L",-4.528913,130.756482]},{"t":3200,"v":["M",71.972635,-94.985104,"L",11.316045,127.899698]}],"stroke":[{"t":200,"v":{"t":"c","v":{"r":0,"g":255,"b":103,"a":1}}},{"t":3100,"v":{"t":"c","v":{"r":0,"g":255,"b":103,"a":1}}},{"t":3200,"v":null}]},"elIBvUyXrit5":{"d":[{"t":0,"v":["M",71.972635,-94.985104,"L",71.510058,-85.445626]},{"t":200,"v":["M",71.972635,-94.985104,"L",61.34076,9.108851]},{"t":300,"v":["M",71.972635,-94.985104,"L",62.177006,29.352479]},{"t":400,"v":["M",71.972635,-94.985104,"L",61.898257,48.832197]},{"t":500,"v":["M",71.972635,-94.985104,"L",61.898257,68.69387]},{"t":600,"v":["M",71.972635,-94.985104,"L",61.340761,89.701409]},{"t":700,"v":["M",71.972635,-94.985104,"L",61.898257,108.799172]},{"t":800,"v":["M",71.972635,-94.985104,"L",62.177006,129.806711]},{"t":900,"v":["M",71.972635,-94.985104,"L",75.278176,130.952577]},{"t":1000,"v":["M",71.972635,-94.985104,"L",80.016904,124.459337]},{"t":1100,"v":["M",71.972635,-94.985104,"L",92.00308,132.862353]},{"t":1200,"v":["M",71.972635,-94.985104,"L",107.055488,130.188666]},{"t":1300,"v":["M",71.972635,-94.985104,"L",120.156664,122.931516]},{"t":1400,"v":["M",71.972635,-94.985104,"L",127.961621,108.035261]},{"t":1500,"v":["M",71.972635,-94.985104,"L",130.470359,86.263812]},{"t":1600,"v":["M",71.972635,-94.985104,"L",127.404129,67.166049]},{"t":1700,"v":["M",71.972635,-94.985104,"L",119.877925,50.741974]},{"t":1800,"v":["M",71.972635,-94.985104,"L",106.498004,42.338958]},{"t":1900,"v":["M",71.972635,-94.985104,"L",92.003085,42.338958]},{"t":2000,"v":["M",71.972635,-94.985104,"L",78.576698,51.155758]},{"t":2100,"v":["M",71.972635,-94.985104,"L",76.544162,38.423917]},{"t":2200,"v":["M",71.972635,-94.985104,"L",77.124889,19.326154]},{"t":2300,"v":["M",71.972635,-94.985104,"L",73.059807,5.798572]},{"t":2400,"v":["M",71.972635,-94.985104,"L",61.73565,6.594312]}],"stroke":[{"t":200,"v":{"t":"c","v":{"r":0,"g":123,"b":255,"a":1}}},{"t":2400,"v":{"t":"c","v":{"r":0,"g":123,"b":255,"a":1}}},{"t":2500,"v":null}]},"elIBvUyXrit6":{"d":[{"t":0,"v":["M",71.972635,-94.985104,"L",76.57228,-88.335845]},{"t":200,"v":["M",71.972635,-94.985104,"L",181.760058,46.158511]},{"t":300,"v":["M",71.972635,-94.985104,"L",177.021343,60.290855]},{"t":400,"v":["M",71.972635,-94.985104,"L",172.840117,74.423199]},{"t":500,"v":["M",71.972635,-94.985104,"L",168.101394,88.937499]},{"t":600,"v":["M",71.972635,-94.985104,"L",163.641419,106.50744]},{"t":700,"v":["M",71.972635,-94.985104,"L",161.411431,91.993141]},{"t":800,"v":["M",71.972635,-94.985104,"L",156.951458,77.096886]},{"t":900,"v":["M",71.972635,-94.985104,"L",152.770231,60.67281]},{"t":1000,"v":["M",71.972635,-94.985104,"L",149.425252,45.012645]},{"t":1100,"v":["M",71.972635,-94.985104,"L",140.505307,43.866779]},{"t":1200,"v":["M",71.972635,-94.985104,"L",129.912868,43.484824]},{"t":1300,"v":["M",71.972635,-94.985104,"L",135.487829,59.9089]},{"t":1400,"v":["M",71.972635,-94.985104,"L",140.226551,74.423199]},{"t":1500,"v":["M",71.972635,-94.985104,"L",143.571532,88.937499]},{"t":1600,"v":["M",71.972635,-94.985104,"L",148.867752,103.833754]},{"t":1700,"v":["M",71.972635,-94.985104,"L",152.491481,118.730009]},{"t":1800,"v":["M",71.972635,-94.985104,"L",153.885224,133.626263]},{"t":1900,"v":["M",71.972635,-94.985104,"L",149.773687,148.236052]},{"t":2000,"v":["M",71.972635,-94.985104,"L",144.48908,163.752984]},{"t":2100,"v":["M",71.972635,-94.985104,"L",152.909609,167.333814]},{"t":2200,"v":["M",71.972635,-94.985104,"L",162.201216,164.946594]},{"t":2300,"v":["M",71.972635,-94.985104,"L",167.137387,149.429662]},{"t":2400,"v":["M",71.972635,-94.985104,"L",172.07356,133.91273]},{"t":2500,"v":["M",71.972635,-94.985104,"L",176.13864,120.783018]},{"t":2600,"v":["M",71.972635,-94.985104,"L",180.494083,105.266086]},{"t":2700,"v":["M",71.972635,-94.985104,"L",185.430252,92.534244]},{"t":2800,"v":["M",71.972635,-94.985104,"L",189.42274,76.022637]},{"t":2900,"v":["M",71.972635,-94.985104,"L",193.778182,61.10251]},{"t":3000,"v":["M",71.972635,-94.985104,"L",198.133626,47.674396]},{"t":3100,"v":["M",71.972635,-94.985104,"L",190.874556,41.706345]},{"t":3200,"v":["M",71.972635,-94.985104,"L",183.252529,43.198357]}],"stroke":[{"t":200,"v":{"t":"c","v":{"r":255,"g":251,"b":0,"a":1}}},{"t":3200,"v":{"t":"c","v":{"r":255,"g":251,"b":0,"a":1}}},{"t":3300,"v":null}]},"elIBvUyXrit8":{"opacity":[{"t":3300,"v":1},{"t":4100,"v":0}],"stroke-dashoffset":[{"t":200,"v":609.84},{"t":3200,"v":0}]},"elIBvUyXrit9":{"stroke":[{"t":100,"v":null},{"t":200,"v":{"t":"c","v":{"r":197,"g":197,"b":197,"a":1}}},{"t":3200,"v":{"t":"c","v":{"r":197,"g":197,"b":197,"a":1}}},{"t":3300,"v":null}],"stroke-dashoffset":[{"t":200,"v":609.84},{"t":3200,"v":0}]},"elIBvUyXrit12":{"opacity":[{"t":200,"v":0},{"t":3200,"v":0},{"t":4200,"v":1}]},"elIBvUyXrit13":{"#filter":{"keys":[{"t":3500,"v":[{"type":"drop-shadow","value":{"blur":{"x":0,"y":0},"offset":{"x":0,"y":0},"color":{"r":41,"g":91,"b":38,"a":1}}}]},{"t":4600,"v":[{"type":"drop-shadow","value":{"blur":{"x":3,"y":3},"offset":{"x":3,"y":2},"color":{"r":41,"g":91,"b":38,"a":1}}}]},{"t":5500,"v":[{"type":"drop-shadow","value":{"blur":{"x":0,"y":0},"offset":{"x":0,"y":0},"color":{"r":41,"g":91,"b":38,"a":1}}}]}],"data":{"items":[["drop-shadow","elIBvUyXrit13-filter-drop-shadow-0"]]}}},"elIBvUyXrit20":{"opacity":[{"t":4400,"v":1},{"t":5200,"v":0}]},"elIBvUyXrit21":{"stroke-dashoffset":[{"t":200,"v":705.12},{"t":3200,"v":0}]},"elIBvUyXrit22":{"stroke":[{"t":100,"v":null},{"t":200,"v":{"t":"c","v":{"r":0,"g":255,"b":103,"a":1}}},{"t":3100,"v":{"t":"c","v":{"r":0,"g":255,"b":103,"a":1}}},{"t":3200,"v":null}],"stroke-dashoffset":[{"t":200,"v":705.12},{"t":3200,"v":0}]},"elIBvUyXrit23":{"stroke-dashoffset":[{"t":200,"v":542.76},{"t":3200,"v":0}]},"elIBvUyXrit24":{"stroke":[{"t":2600,"v":{"t":"c","v":{"r":255,"g":0,"b":0,"a":1}}},{"t":2700,"v":null}],"stroke-dashoffset":[{"t":100,"v":600},{"t":200,"v":542.76},{"t":3200,"v":0}]},"elIBvUyXrit25":{"stroke-dashoffset":[{"t":200,"v":600.19},{"t":3200,"v":0}]},"elIBvUyXrit26":{"stroke":[{"t":100,"v":null},{"t":200,"v":{"t":"c","v":{"r":0,"g":123,"b":255,"a":1}}},{"t":2500,"v":{"t":"c","v":{"r":0,"g":123,"b":255,"a":1}}},{"t":2600,"v":null}],"stroke-dashoffset":[{"t":100,"v":650},{"t":200,"v":600.19},{"t":3200,"v":0}]},"elIBvUyXrit27":{"stroke-dashoffset":[{"t":200,"v":477.69},{"t":3200,"v":0}]},"elIBvUyXrit28":{"stroke":[{"t":100,"v":null},{"t":200,"v":{"t":"c","v":{"r":255,"g":251,"b":0,"a":1}}},{"t":3200,"v":{"t":"c","v":{"r":255,"g":251,"b":0,"a":1}}},{"t":3300,"v":null}],"stroke-dashoffset":[{"t":200,"v":477.69},{"t":3200,"v":0}]},"elIBvUyXrit30":{"opacity":[{"t":200,"v":0},{"t":3200,"v":0},{"t":4200,"v":1}]}},"s":"MDA1MNExjZjc2YjhjOWM2YjVjOGJkHYzNjMk43NjhlODVCODRHODQ4QNDg0ODA3NmI4TGJkYzZiOWI3PYzhiZGMzYzI3NjhlODU4MDc2EYmRjOGI5YzZiNUFjOGJkYzNjXMmM3NzZEOGU4NTgwNzZiYWJkXTGMwYzA3NjhlODVBODBJNzZiINWMwYzhiOWM2YzJiNWM4Yjk3INlM4ZWJhYjVjMGM3Yjk4MDc2PYzdWYzRMYjlVYjliODc2OGU4INWQx"}],"options":"MDAxOMDhmVzM2ODc4ODc1ODY4ODM2ANGUzNjgwODM3NTc4MzY5MQ|"},'https://cdn.svgator.com/ply/','__SVGATOR_PLAYER__','2021-10-11',window,document,'script','http://www.w3.org/2000/svg','http://www.w3.org/1999/xlink')]]></script></svg>