<svg id="ewJdoNZPLVf1" xmlns="http://www.w3.org/2000/svg" xmlns:xlink="http://www.w3.org/1999/xlink" viewBox="0 0 800 350" shape-rendering="geometricPrecision" text-rendering="geometricPrecision" width="800" height="350" style="background-color:rgb(0,0,0)"><style><![CDATA[#ewJdoNZPLVf2 {animation-name: ewJdoNZPLVf2__m, ewJdoNZPLVf2_s_p;animation-duration: 10000ms;animation-fill-mode: forwards;animation-timing-function: linear;animation-direction: normal;animation-iteration-count: 1;}@keyframes ewJdoNZPLVf2__m { 0% {d: path('M71.972635,-94.985104L66.869684,-85.445626')} 23% {d: path('M71.972635,-94.985104L66.869684,-85.445626')} 25% {d: path('M71.972635,-94.985104L-51.575845,91.277704')} 26% {d: path('M71.972635,-94.985104L-52.527251,72.765682')} 27% {d: path('M71.972635,-94.985104L-58.045405,56.860986')} 28% {d: path('M71.972635,-94.985104L-66.227477,44.606549')} 29% {d: path('M71.972635,-94.985104L-79.547151,39.913361')} 30% {d: path('M71.972635,-94.985104L-91.915412,40.695559')} 31% {d: path('M71.972635,-94.985104L-105.235079,46.692411')} 32% {d: path('M71.972635,-94.985104L-114.039006,58.461222')} 33% {d: path('M71.972635,-94.985104L-119.453118,75.600959')} 34% {d: path('M71.972635,-94.985104L-118.893029,92.484878')} 35% {d: path('M71.972635,-94.985104L-114.412378,110.903699')} 36% {d: path('M71.972635,-94.985104L-106.384559,124.717815')} 37% {d: path('M71.972635,-94.985104L-94.622873,132.648141')} 38% {d: path('M71.972635,-94.985104L-81.554321,133.671409')} 39% {d: path('M71.972635,-94.985104L-67.739008,129.578337')} 40% {d: path('M71.972635,-94.985104L-56.350697,120.880561')} 41% {d: path('M71.972635,-94.985104L-63.631771,109.11298')} 42% {d: path('M71.972635,-94.985104L-74.273292,111.926967')} 43% {d: path('M71.972635,-94.985104L-86.595063,113.206052')} 44% {d: path('M71.972635,-94.985104L-98.730131,105.275726')} 45% {d: path('M71.972635,-94.985104L-101.903926,95.298865')} 46% {d: path('M71.972635,-94.985104L-85.661574,95.554681')} 47% {d: path('M71.972635,-94.985104L-72.779729,94.531414')} 48% {d: path('M71.972635,-94.985104L-61.204736,95.810498')} 49% {d: path('M71.972635,-94.985104L-54.110377,94.787231')} 100% {d: path('M71.972635,-94.985104L-54.110377,94.787231')}}@keyframes ewJdoNZPLVf2_s_p { 0% {stroke: rgb(255,0,0)} 49% {stroke: rgb(255,0,0)} 50% {stroke: none} 100% {stroke: none}} #ewJdoNZPLVf3 {animation-name: ewJdoNZPLVf3__m, ewJdoNZPLVf3_s_p;animation-duration: 10000ms;animation-fill-mode: forwards;animation-timing-function: linear;animation-direction: normal;animation-iteration-count: 1;}@keyframes ewJdoNZPLVf3__m { 0% {d: path('M71.972635,-94.985104L66.869684,-85.445626')} 23% {d: path('M71.972635,-94.985104L66.869684,-85.445626')} 25% {d: path('M71.972635,-94.985104L-206.987297,-12.06562')} 26% {d: path('M71.972635,-94.985104L-197.993123,2.459419')} 27% {d: path('M71.972635,-94.985104L-186.750403,16.984458')} 28% {d: path('M71.972635,-94.985104L-176.471343,31.94965')} 29% {d: path('M71.972635,-94.985104L-165.871067,27.548123')} 30% {d: path('M71.972635,-94.985104L-155.270796,42.953468')} 31% {d: path('M71.972635,-94.985104L-144.991737,57.91866')} 32% {d: path('M71.972635,-94.985104L-134.07024,72.003546')} 33% {d: path('M71.972635,-94.985104L-137.603671,87.408891')} 34% {d: path('M71.972635,-94.985104L-147.882727,101.493778')} 35% {d: path('M71.972635,-94.985104L-158.161778,115.578664')} 36% {d: path('M71.972635,-94.985104L-156.555676,130.543856')} 37% {d: path('M71.972635,-94.985104L-166.723148,145.822929')} 38% {d: path('M71.972635,-94.985104L-176.634779,158.24848')} 39% {d: path('M71.972635,-94.985104L-187.841375,173.243121')} 40% {d: path('M71.972635,-94.985104L-197.726638,184.530867')} 41% {d: path('M71.972635,-94.985104L-207.200018,169.856797')} 42% {d: path('M71.972635,-94.985104L-219.144718,155.747115')} 43% {d: path('M71.972635,-94.985104L-228.206206,140.508658')} 44% {d: path('M71.972635,-94.985104L-239.739019,143.330595')} 45% {d: path('M71.972635,-94.985104L-250.448054,129.220912')} 46% {d: path('M71.972635,-94.985104L-261.157093,112.853681')} 47% {d: path('M71.972635,-94.985104L-270.218588,102.69471')} 48% {d: path('M71.972635,-94.985104L-268.571045,86.327478')} 49% {d: path('M71.972635,-94.985104L-258.685773,72.217796')} 50% {d: path('M71.972635,-94.985104L-248.800511,58.108114')} 51% {d: path('M71.972635,-94.985104L-245.093536,44.562819')} 52% {d: path('M71.972635,-94.985104L-239.327133,28.195587')} 53% {d: path('M71.972635,-94.985104L-229.029983,14.650292')} 54% {d: path('M71.972635,-94.985104L-218.320942,0.54061')} 55% {d: path('M71.972635,-94.985104L-208.435673,-10.747136')} 100% {d: path('M71.972635,-94.985104L-208.435673,-10.747136')}}@keyframes ewJdoNZPLVf3_s_p { 0% {stroke: rgb(197,197,197)} 25% {stroke: rgb(197,197,197)} 55% {stroke: rgb(197,197,197)} 56% {stroke: none} 100% {stroke: none}} #ewJdoNZPLVf4 {animation-name: ewJdoNZPLVf4__m, ewJdoNZPLVf4_s_p;animation-duration: 10000ms;animation-fill-mode: forwards;animation-timing-function: linear;animation-direction: normal;animation-iteration-count: 1;}@keyframes ewJdoNZPLVf4__m { 0% {d: path('M71.972635,-94.985104L68.97895,-85.445626')} 23% {d: path('M71.972635,-94.985104L68.97895,-85.445626')} 25% {d: path('M71.972635,-94.985104L8.768233,131.084166')} 26% {d: path('M71.972635,-94.985104L10.507349,105.551747')} 27% {d: path('M71.972635,-94.985104L11.499503,79.174397')} 28% {d: path('M71.972635,-94.985104L20.806317,63.542078')} 29% {d: path('M71.972635,-94.985104L35.817329,70.946861')} 30% {d: path('M71.972635,-94.985104L37.376805,93.903973')} 31% {d: path('M71.972635,-94.985104L37.376803,117.04392')} 32% {d: path('M71.972635,-94.985104L44.256853,129.899446')} 33% {d: path('M71.972635,-94.985104L52.804778,117.04392')} 34% {d: path('M71.972635,-94.985104L53.013264,94.189652')} 35% {d: path('M71.972635,-94.985104L52.387805,71.335383')} 36% {d: path('M71.972635,-94.985104L44.67381,51.05222')} 37% {d: path('M71.972635,-94.985104L29.245841,41.339156')} 38% {d: path('M71.972635,-94.985104L12.566951,45.338653')} 39% {d: path('M71.972635,-94.985104L2.142643,53.337647')} 40% {d: path('M71.972635,-94.985104L-13.076848,42.481869')} 41% {d: path('M71.972635,-94.985104L-27.670879,47.62408')} 42% {d: path('M71.972635,-94.985104L-36.427301,42.767548')} 43% {d: path('M71.972635,-94.985104L-47.268574,51.05222')} 44% {d: path('M71.972635,-94.985104L-46.851602,77.334629')} 45% {d: path('M71.972635,-94.985104L-46.434629,99.617541')} 46% {d: path('M71.972635,-94.985104L-47.060088,123.614523')} 47% {d: path('M71.972635,-94.985104L-35.176376,130.470803')} 48% {d: path('M71.972635,-94.985104L-31.21514,111.616032')} 49% {d: path('M71.972635,-94.985104L-32.049085,88.761763')} 50% {d: path('M71.972635,-94.985104L-27.045413,68.192921')} 51% {d: path('M71.972635,-94.985104L-11.200466,65.907494')} 52% {d: path('M71.972635,-94.985104L-3.903453,84.190909')} 53% {d: path('M71.972635,-94.985104L-4.528914,107.902213')} 54% {d: path('M71.972635,-94.985104L-4.528913,130.756482')} 55% {d: path('M71.972635,-94.985104L11.316045,127.899698')} 100% {d: path('M71.972635,-94.985104L11.316045,127.899698')}}@keyframes ewJdoNZPLVf4_s_p { 0% {stroke: rgb(0,255,103)} 25% {stroke: rgb(0,255,103)} 54% {stroke: rgb(0,255,103)} 55% {stroke: none} 100% {stroke: none}} #ewJdoNZPLVf5 {animation-name: ewJdoNZPLVf5__m, ewJdoNZPLVf5_s_p;animation-duration: 10000ms;animation-fill-mode: forwards;animation-timing-function: linear;animation-direction: normal;animation-iteration-count: 1;}@keyframes ewJdoNZPLVf5__m { 0% {d: path('M71.972635,-94.985104L71.510058,-85.445626')} 23% {d: path('M71.972635,-94.985104L71.510058,-85.445626')} 25% {d: path('M71.972635,-94.985104L61.34076,9.108851')} 26% {d: path('M71.972635,-94.985104L62.177006,29.352479')} 27% {d: path('M71.972635,-94.985104L61.898257,48.832197')} 28% {d: path('M71.972635,-94.985104L61.898257,68.69387')} 29% {d: path('M71.972635,-94.985104L61.340761,89.701409')} 30% {d: path('M71.972635,-94.985104L61.898257,108.799172')} 31% {d: path('M71.972635,-94.985104L62.177006,129.806711')} 32% {d: path('M71.972635,-94.985104L75.278176,130.952577')} 33% {d: path('M71.972635,-94.985104L80.016904,124.459337')} 34% {d: path('M71.972635,-94.985104L92.00308,132.862353')} 35% {d: path('M71.972635,-94.985104L107.055488,130.188666')} 36% {d: path('M71.972635,-94.985104L120.156664,122.931516')} 37% {d: path('M71.972635,-94.985104L127.961621,108.035261')} 38% {d: path('M71.972635,-94.985104L130.470359,86.263812')} 39% {d: path('M71.972635,-94.985104L127.404129,67.166049')} 40% {d: path('M71.972635,-94.985104L119.877925,50.741974')} 41% {d: path('M71.972635,-94.985104L106.498004,42.338958')} 42% {d: path('M71.972635,-94.985104L92.003085,42.338958')} 43% {d: path('M71.972635,-94.985104L78.576698,51.155758')} 44% {d: path('M71.972635,-94.985104L76.544162,38.423917')} 45% {d: path('M71.972635,-94.985104L77.124889,19.326154')} 46% {d: path('M71.972635,-94.985104L73.059807,5.798572')} 47% {d: path('M71.972635,-94.985104L61.73565,6.594312')} 100% {d: path('M71.972635,-94.985104L61.73565,6.594312')}}@keyframes ewJdoNZPLVf5_s_p { 0% {stroke: rgb(0,123,255)} 25% {stroke: rgb(0,123,255)} 47% {stroke: rgb(0,123,255)} 48% {stroke: none} 100% {stroke: none}} #ewJdoNZPLVf6 {animation-name: ewJdoNZPLVf6__m, ewJdoNZPLVf6_s_p;animation-duration: 10000ms;animation-fill-mode: forwards;animation-timing-function: linear;animation-direction: normal;animation-iteration-count: 1;}@keyframes ewJdoNZPLVf6__m { 0% {d: path('M71.972635,-94.985104L76.57228,-88.335845')} 23% {d: path('M71.972635,-94.985104L76.57228,-88.335845')} 25% {d: path('M71.972635,-94.985104L181.760058,46.158511')} 26% {d: path('M71.972635,-94.985104L177.021343,60.290855')} 27% {d: path('M71.972635,-94.985104L172.840117,74.423199')} 28% {d: path('M71.972635,-94.985104L168.101394,88.937499')} 29% {d: path('M71.972635,-94.985104L163.641419,106.50744')} 30% {d: path('M71.972635,-94.985104L161.411431,91.993141')} 31% {d: path('M71.972635,-94.985104L156.951458,77.096886')} 32% {d: path('M71.972635,-94.985104L152.770231,60.67281')} 33% {d: path('M71.972635,-94.985104L149.425252,45.012645')} 34% {d: path('M71.972635,-94.985104L140.505307,43.866779')} 35% {d: path('M71.972635,-94.985104L129.912868,43.484824')} 36% {d: path('M71.972635,-94.985104L135.487829,59.9089')} 37% {d: path('M71.972635,-94.985104L140.226551,74.423199')} 38% {d: path('M71.972635,-94.985104L143.571532,88.937499')} 39% {d: path('M71.972635,-94.985104L148.867752,103.833754')} 40% {d: path('M71.972635,-94.985104L152.491481,118.730009')} 41% {d: path('M71.972635,-94.985104L153.885224,133.626263')} 42% {d: path('M71.972635,-94.985104L149.773687,148.236052')} 43% {d: path('M71.972635,-94.985104L144.48908,163.752984')} 44% {d: path('M71.972635,-94.985104L152.909609,167.333814')} 45% {d: path('M71.972635,-94.985104L162.201216,164.946594')} 46% {d: path('M71.972635,-94.985104L167.137387,149.429662')} 47% {d: path('M71.972635,-94.985104L172.07356,133.91273')} 48% {d: path('M71.972635,-94.985104L176.13864,120.783018')} 49% {d: path('M71.972635,-94.985104L180.494083,105.266086')} 50% {d: path('M71.972635,-94.985104L185.430252,92.534244')} 51% {d: path('M71.972635,-94.985104L189.42274,76.022637')} 52% {d: path('M71.972635,-94.985104L193.778182,61.10251')} 53% {d: path('M71.972635,-94.985104L198.133626,47.674396')} 54% {d: path('M71.972635,-94.985104L190.874556,41.706345')} 55% {d: path('M71.972635,-94.985104L183.252529,43.198357')} 100% {d: path('M71.972635,-94.985104L183.252529,43.198357')}}@keyframes ewJdoNZPLVf6_s_p { 0% {stroke: rgb(255,251,0)} 25% {stroke: rgb(255,251,0)} 55% {stroke: rgb(255,251,0)} 56% {stroke: none} 100% {stroke: none}} #ewJdoNZPLVf8 {animation-name: ewJdoNZPLVf8_c_o, ewJdoNZPLVf8_s_do;animation-duration: 10000ms;animation-fill-mode: forwards;animation-timing-function: linear;animation-direction: normal;animation-iteration-count: 1;}@keyframes ewJdoNZPLVf8_c_o { 0% {opacity: 1} 56% {opacity: 1} 64% {opacity: 0} 100% {opacity: 0}}@keyframes ewJdoNZPLVf8_s_do { 0% {stroke-dashoffset: 609.84} 25% {stroke-dashoffset: 609.84} 55% {stroke-dashoffset: 0} 100% {stroke-dashoffset: 0}} #ewJdoNZPLVf9 {animation-name: ewJdoNZPLVf9_s_p, ewJdoNZPLVf9_s_do;animation-duration: 10000ms;animation-fill-mode: forwards;animation-timing-function: linear;animation-direction: normal;animation-iteration-count: 1;}@keyframes ewJdoNZPLVf9_s_p { 0% {stroke: none} 24% {stroke: none} 25% {stroke: rgb(197,197,197)} 55% {stroke: rgb(197,197,197)} 56% {stroke: none} 100% {stroke: none}}@keyframes ewJdoNZPLVf9_s_do { 0% {stroke-dashoffset: 609.84} 25% {stroke-dashoffset: 609.84} 55% {stroke-dashoffset: 0} 100% {stroke-dashoffset: 0}} #ewJdoNZPLVf12 {animation: ewJdoNZPLVf12_c_o 10000ms linear 1 normal forwards}@keyframes ewJdoNZPLVf12_c_o { 0% {opacity: 0} 25% {opacity: 0} 55% {opacity: 0} 65% {opacity: 1} 100% {opacity: 1}} #ewJdoNZPLVf13 {animation: ewJdoNZPLVf13__fl 10000ms linear 1 normal forwards}@keyframes ewJdoNZPLVf13__fl { 0% {filter: drop-shadow(0px 0px 0px rgb(41,91,38))} 58% {filter: drop-shadow(0px 0px 0px rgb(41,91,38))} 69% {filter: drop-shadow(3px 2px 4.242641px rgb(41,91,38))} 78% {filter: drop-shadow(0px 0px 0px rgb(41,91,38))} 100% {filter: drop-shadow(0px 0px 0px rgb(41,91,38))}} #ewJdoNZPLVf20 {animation: ewJdoNZPLVf20_c_o 10000ms linear 1 normal forwards}@keyframes ewJdoNZPLVf20_c_o { 0% {opacity: 1} 67% {opacity: 1} 75% {opacity: 0} 100% {opacity: 0}} #ewJdoNZPLVf21 {animation: ewJdoNZPLVf21_s_do 10000ms linear 1 normal forwards}@keyframes ewJdoNZPLVf21_s_do { 0% {stroke-dashoffset: 705.12} 25% {stroke-dashoffset: 705.12} 55% {stroke-dashoffset: 0} 100% {stroke-dashoffset: 0}} #ewJdoNZPLVf22 {animation-name: ewJdoNZPLVf22_s_p, ewJdoNZPLVf22_s_do;animation-duration: 10000ms;animation-fill-mode: forwards;animation-timing-function: linear;animation-direction: normal;animation-iteration-count: 1;}@keyframes ewJdoNZPLVf22_s_p { 0% {stroke: none} 24% {stroke: none} 25% {stroke: rgb(0,255,103)} 54% {stroke: rgb(0,255,103)} 55% {stroke: none} 100% {stroke: none}}@keyframes ewJdoNZPLVf22_s_do { 0% {stroke-dashoffset: 705.12} 25% {stroke-dashoffset: 705.12} 55% {stroke-dashoffset: 0} 100% {stroke-dashoffset: 0}} #ewJdoNZPLVf23 {animation: ewJdoNZPLVf23_s_do 10000ms linear 1 normal forwards}@keyframes ewJdoNZPLVf23_s_do { 0% {stroke-dashoffset: 542.76} 25% {stroke-dashoffset: 542.76} 55% {stroke-dashoffset: 0} 100% {stroke-dashoffset: 0}} #ewJdoNZPLVf24 {animation-name: ewJdoNZPLVf24_s_p, ewJdoNZPLVf24_s_do;animation-duration: 10000ms;animation-fill-mode: forwards;animation-timing-function: linear;animation-direction: normal;animation-iteration-count: 1;}@keyframes ewJdoNZPLVf24_s_p { 0% {stroke: rgb(255,0,0)} 49% {stroke: rgb(255,0,0)} 50% {stroke: none} 100% {stroke: none}}@keyframes ewJdoNZPLVf24_s_do { 0% {stroke-dashoffset: 600} 24% {stroke-dashoffset: 600} 25% {stroke-dashoffset: 542.76} 55% {stroke-dashoffset: 0} 100% {stroke-dashoffset: 0}} #ewJdoNZPLVf25 {animation: ewJdoNZPLVf25_s_do 10000ms linear 1 normal forwards}@keyframes ewJdoNZPLVf25_s_do { 0% {stroke-dashoffset: 600.19} 25% {stroke-dashoffset: 600.19} 55% {stroke-dashoffset: 0} 100% {stroke-dashoffset: 0}} #ewJdoNZPLVf26 {animation-name: ewJdoNZPLVf26_s_p, ewJdoNZPLVf26_s_do;animation-duration: 10000ms;animation-fill-mode: forwards;animation-timing-function: linear;animation-direction: normal;animation-iteration-count: 1;}@keyframes ewJdoNZPLVf26_s_p { 0% {stroke: none} 24% {stroke: none} 25% {stroke: rgb(0,123,255)} 48% {stroke: rgb(0,123,255)} 49% {stroke: none} 100% {stroke: none}}@keyframes ewJdoNZPLVf26_s_do { 0% {stroke-dashoffset: 650} 24% {stroke-dashoffset: 650} 25% {stroke-dashoffset: 600.19} 55% {stroke-dashoffset: 0} 100% {stroke-dashoffset: 0}} #ewJdoNZPLVf27 {animation: ewJdoNZPLVf27_s_do 10000ms linear 1 normal forwards}@keyframes ewJdoNZPLVf27_s_do { 0% {stroke-dashoffset: 477.69} 25% {stroke-dashoffset: 477.69} 55% {stroke-dashoffset: 0} 100% {stroke-dashoffset: 0}} #ewJdoNZPLVf28 {animation-name: ewJdoNZPLVf28_s_p, ewJdoNZPLVf28_s_do;animation-duration: 10000ms;animation-fill-mode: forwards;animation-timing-function: linear;animation-direction: normal;animation-iteration-count: 1;}@keyframes ewJdoNZPLVf28_s_p { 0% {stroke: none} 24% {stroke: none} 25% {stroke: rgb(255,251,0)} 55% {stroke: rgb(255,251,0)} 56% {stroke: none} 100% {stroke: none}}@keyframes ewJdoNZPLVf28_s_do { 0% {stroke-dashoffset: 477.69} 25% {stroke-dashoffset: 477.69} 55% {stroke-dashoffset: 0} 100% {stroke-dashoffset: 0}} #ewJdoNZPLVf30 {animation: ewJdoNZPLVf30_c_o 10000ms linear 1 normal forwards}@keyframes ewJdoNZPLVf30_c_o { 0% {opacity: 0} 25% {opacity: 0} 55% {opacity: 0} 65% {opacity: 1} 100% {opacity: 1}}]]></style><defs><filter id="ewJdoNZPLVf2-filter" x="-400%" width="600%" y="-400%" height="600%"><feGaussianBlur id="ewJdoNZPLVf2-filter-blur-0" stdDeviation="1,1" result="result"/></filter><filter id="ewJdoNZPLVf3-filter" x="-400%" width="600%" y="-400%" height="600%"><feGaussianBlur id="ewJdoNZPLVf3-filter-blur-0" stdDeviation="1,1" result="result"/></filter><filter id="ewJdoNZPLVf4-filter" x="-400%" width="600%" y="-400%" height="600%"><feGaussianBlur id="ewJdoNZPLVf4-filter-blur-0" stdDeviation="1,1" result="result"/></filter><filter id="ewJdoNZPLVf5-filter" x="-400%" width="600%" y="-400%" height="600%"><feGaussianBlur id="ewJdoNZPLVf5-filter-blur-0" stdDeviation="1,1" result="result"/></filter><filter id="ewJdoNZPLVf6-filter" x="-400%" width="600%" y="-400%" height="600%"><feGaussianBlur id="ewJdoNZPLVf6-filter-blur-0" stdDeviation="1,1" result="result"/></filter><filter id="ewJdoNZPLVf9-filter" x="-400%" width="600%" y="-400%" height="600%"><feGaussianBlur id="ewJdoNZPLVf9-filter-blur-0" stdDeviation="2,2" result="result"/></filter><filter id="ewJdoNZPLVf22-filter" x="-400%" width="600%" y="-400%" height="600%"><feGaussianBlur id="ewJdoNZPLVf22-filter-blur-0" stdDeviation="2,2" result="result"/></filter><filter id="ewJdoNZPLVf24-filter" x="-400%" width="600%" y="-400%" height="600%"><feGaussianBlur id="ewJdoNZPLVf24-filter-blur-0" stdDeviation="2,2" result="result"/></filter><filter id="ewJdoNZPLVf26-filter" x="-400%" width="600%" y="-400%" height="600%"><feGaussianBlur id="ewJdoNZPLVf26-filter-blur-0" stdDeviation="2,2" result="result"/></filter><filter id="ewJdoNZPLVf28-filter" x="-400%" width="600%" y="-400%" height="600%"><feGaussianBlur id="ewJdoNZPLVf28-filter-blur-0" stdDeviation="2,2" result="result"/></filter><filter id="ewJdoNZPLVf35-filter" x="-400%" width="600%" y="-400%" height="600%"><feGaussianBlur id="ewJdoNZPLVf35-filter-blur-0" stdDeviation="8,8" result="result"/></filter><radialGradient id="ewJdoNZPLVf35-fill" cx="0" cy="0" r="0.757246" spreadMethod="pad" gradientUnits="objectBoundingBox" gradientTransform="matrix(1 0 0 1 0.5 0.5)"><stop id="ewJdoNZPLVf35-fill-0" offset="6%" stop-color="rgb(0,0,0)"/><stop id="ewJdoNZPLVf35-fill-1" offset="100%" stop-color="rgba(0,0,0,0)"/><stop id="ewJdoNZPLVf35-fill-2" offset="100%" stop-color="rgba(0,0,0,0.29912553191489355)"/></radialGradient></defs><path id="ewJdoNZPLVf2" d="M71.972635,-94.985104L66.869684,-85.445626" transform="matrix(1.370251 0 0 1 441.379447 124.985105)" filter="url(#ewJdoNZPLVf2-filter)" fill="none" stroke="rgb(255,0,0)" stroke-width="2" stroke-linecap="round" stroke-linejoin="round" stroke-dasharray="2,1,2,1"/><path id="ewJdoNZPLVf3" d="M71.972635,-94.985104L66.869684,-85.445626" transform="matrix(1.370251 0 0 1 441.379447 124.985105)" filter="url(#ewJdoNZPLVf3-filter)" fill="none" stroke="rgb(197,197,197)" stroke-width="2" stroke-linecap="round" stroke-linejoin="round" stroke-dasharray="2,1,2,1"/><path id="ewJdoNZPLVf4" d="M71.972635,-94.985104L68.97895,-85.445626" transform="matrix(1.370251 0 0 1 441.379447 124.985105)" filter="url(#ewJdoNZPLVf4-filter)" fill="none" stroke="rgb(0,255,103)" stroke-width="2" stroke-linecap="round" stroke-linejoin="round" stroke-dasharray="2,1,2,1"/><path id="ewJdoNZPLVf5" d="M71.972635,-94.985104L71.510058,-85.445626" transform="matrix(1.370251 0 0 1 441.379447 124.985105)" filter="url(#ewJdoNZPLVf5-filter)" fill="none" stroke="rgb(0,123,255)" stroke-width="3" stroke-linecap="round" stroke-linejoin="round" stroke-dasharray="2,1,2,1"/><path id="ewJdoNZPLVf6" d="M71.972635,-94.985104L76.57228,-88.335845" transform="matrix(1.370251 0 0 1 441.379447 124.985105)" filter="url(#ewJdoNZPLVf6-filter)" fill="none" stroke="rgb(255,251,0)" stroke-width="2" stroke-linecap="round" stroke-linejoin="round" stroke-dasharray="2,1,2,1"/><g id="ewJdoNZPLVf7" transform="matrix(1 0 0 1 -0.000018 3)"><path id="ewJdoNZPLVf8" d="M94.0644,98.788L140.9664,145.69L149.367,137.2894L201.869,189.7914L158.467,233.1934L166.8676,241.594L110.8646,297.597L63.9626,250.695L55.5623,259.0953L3.0593,206.5923L49.9613,159.6903L41.561,151.29L94.0644,98.788Z" transform="matrix(1 0 0 1 60 10)" fill="none" fill-opacity="0.5" stroke="rgb(197,197,197)" stroke-width="2" stroke-linecap="round" stroke-linejoin="round" stroke-dashoffset="609.84" stroke-dasharray="609.84"/><path id="ewJdoNZPLVf9" d="M94.0644,98.788L140.9664,145.69L149.367,137.2894L201.869,189.7914L158.467,233.1934L166.8676,241.594L110.8646,297.597L63.9626,250.695L55.5623,259.0953L3.0593,206.5923L49.9613,159.6903L41.561,151.29L94.0644,98.788Z" transform="matrix(1 0 0 1 60 10)" filter="url(#ewJdoNZPLVf9-filter)" fill="none" fill-opacity="0.5" stroke="none" stroke-width="9" stroke-linecap="round" stroke-linejoin="round" stroke-dashoffset="609.84" stroke-dasharray="4,605.84"/><g id="ewJdoNZPLVf10"><g id="ewJdoNZPLVf11"><g id="ewJdoNZPLVf12" opacity="0"><path id="ewJdoNZPLVf13" style="filter:drop-shadow(0px 0px 0px rgb(41,91,38))" d="M94.0644,98.788L140.9664,145.69L149.367,137.2894L201.869,189.7914L158.467,233.1934L166.8676,241.594L110.8646,297.597L63.9626,250.695L55.5623,259.0953L3.0593,206.5923L49.9613,159.6903L41.561,151.29L94.0644,98.788Z" transform="matrix(1.04 0 0 1.04 55.901434 2.0723)" fill="rgb(82,181,75)" fill-opacity="0.5" stroke="rgba(0,0,0,0.55)" stroke-width="1.0434" stroke-dashoffset="609.84" stroke-dasharray="609.84"/><path id="ewJdoNZPLVf14" d="M76.911,138.46L76.911,100.514L76.911,62.568L142.635,100.514L109.773,119.487Z" transform="matrix(1 0 0 1 62.464 105.929)" fill="rgb(255,255,255)" stroke="none" stroke-width="1"/></g></g></g></g><g id="ewJdoNZPLVf15" transform="matrix(1 0 0 1 59.999982 110.000009)"><g id="ewJdoNZPLVf16" transform="matrix(1.0006 0 0 0.99935 -0.000001 0.000001)"/><g id="ewJdoNZPLVf17"/><g id="ewJdoNZPLVf18"/><g id="ewJdoNZPLVf19"><g id="ewJdoNZPLVf20"><path id="ewJdoNZPLVf21" d="M398.87,146.1L398.87,99.155C398.87,87.597,406.1606,77.461,417.897,77.461C429.633,77.461,434.434,87.2411,434.434,98.799L434.434,146.099L456.128,146.099L456.128,98.799C456.128,72.482,443.858,57.189,418.964,57.189C407.584,57.189,397.448,60.7454,389.624,73.193C384.645,61.101,374.154,56.834,363.662,56.834C355.3044,56.834,345.169,60.0348,340.545,68.926L338.9446,58.257L318.8506,58.257L318.8506,146.1L340.5446,146.1L340.5446,99.155C340.5446,87.597,347.4796,77.105,359.2156,77.105C371.1296,77.105,377.1756,87.596,377.1756,99.155L377.1756,146.1Z" transform="matrix(1 0 0 1 -2.7759 0)" fill="none" stroke="rgb(0,255,103)" stroke-width="2" stroke-dashoffset="705.12" stroke-dasharray="705.12"/><path id="ewJdoNZPLVf22" d="M398.87,146.1L398.87,99.155C398.87,87.597,406.1606,77.461,417.897,77.461C429.633,77.461,434.434,87.2411,434.434,98.799L434.434,146.099L456.128,146.099L456.128,98.799C456.128,72.482,443.858,57.189,418.964,57.189C407.584,57.189,397.448,60.7454,389.624,73.193C384.645,61.101,374.154,56.834,363.662,56.834C355.3044,56.834,345.169,60.0348,340.545,68.926L338.9446,58.257L318.8506,58.257L318.8506,146.1L340.5446,146.1L340.5446,99.155C340.5446,87.597,347.4796,77.105,359.2156,77.105C371.1296,77.105,377.1756,87.596,377.1756,99.155L377.1756,146.1Z" transform="matrix(1 0 0 1 -2.7759 0)" filter="url(#ewJdoNZPLVf22-filter)" fill="none" stroke="none" stroke-width="9" stroke-dashoffset="705.12" stroke-dasharray="7,698.12"/><path id="ewJdoNZPLVf23" d="M309.02,109.97C312.4686,73.125,293.774,54.611,263.825,54.611C234.784,54.611,216.271,74.213,216.271,101.439C216.271,130.117,234.603,149.175,265.459,149.175C279.072,149.175,294.5,144.4559,303.938,134.655L289.781,120.679C284.6989,125.9426,273.99,129.0282,265.822,129.0282C250.213,129.0282,240.593,121.042,239.141,109.9702ZM239.504,91.638C242.7711,80.022,252.572,74.214,264.552,74.214C277.257,74.214,286.332,80.0221,287.785,91.638Z" fill="none" stroke="rgb(255,0,0)" stroke-width="2" stroke-dashoffset="542.76" stroke-dasharray="542.76"/><path id="ewJdoNZPLVf24" d="M309.02,109.97C312.4686,73.125,293.774,54.611,263.825,54.611C234.784,54.611,216.271,74.213,216.271,101.439C216.271,130.117,234.603,149.175,265.459,149.175C279.072,149.175,294.5,144.4559,303.938,134.655L289.781,120.679C284.6989,125.9426,273.99,129.0282,265.822,129.0282C250.213,129.0282,240.593,121.042,239.141,109.9702ZM239.504,91.638C242.7711,80.022,252.572,74.214,264.552,74.214C277.257,74.214,286.332,80.0221,287.785,91.638Z" filter="url(#ewJdoNZPLVf24-filter)" fill="none" stroke="rgb(255,0,0)" stroke-width="9" stroke-dashoffset="600" stroke-dasharray="7,535.76"/><path id="ewJdoNZPLVf25" d="M516.34,76.786C530.236,76.786,541.281,86.5844,541.281,102.44C541.281,117.761,530.236,128.272,516.34,128.272C502.622,128.272,490.864,118.2954,490.864,102.44C490.864,87.119,502.622,76.786,516.34,76.786ZM467.704,21.915L467.704,146.445L488.013,146.445L489.4382,134.331C496.208,144.842,507.0752,148.405,517.7642,148.405C543.5962,148.405,563.0152,131.302,563.0152,102.442C563.0152,72.156,543.9532,56.479,518.2992,56.479C509.0352,56.479,494.6052,61.4673,489.4382,70.553L489.4382,21.917Z" transform="matrix(1 0 0 1 -2.7759 0)" fill="none" stroke="rgb(0,123,255)" stroke-width="2" stroke-dashoffset="600.19" stroke-dasharray="600.19"/><path id="ewJdoNZPLVf26" d="M516.34,76.786C530.236,76.786,541.281,86.5844,541.281,102.44C541.281,117.761,530.236,128.272,516.34,128.272C502.622,128.272,490.864,118.2954,490.864,102.44C490.864,87.119,502.622,76.786,516.34,76.786ZM467.704,21.915L467.704,146.445L488.013,146.445L489.4382,134.331C496.208,144.842,507.0752,148.405,517.7642,148.405C543.5962,148.405,563.0152,131.302,563.0152,102.442C563.0152,72.156,543.9532,56.479,518.2992,56.479C509.0352,56.479,494.6052,61.4673,489.4382,70.553L489.4382,21.917Z" transform="matrix(1 0 0 1 -2.7759 0)" filter="url(#ewJdoNZPLVf26-filter)" fill="none" stroke="none" stroke-width="9" stroke-dashoffset="650" stroke-dasharray="7,593.19"/><path id="ewJdoNZPLVf27" d="M632.42,57.968L616.38,96.464L607.2907,120.702L598.9143,95.929L585.5473,57.968L560.2393,57.968L595.3493,144.406L578.9533,182.546L602.8353,182.546L656.4803,57.966Z" fill="none" stroke="rgb(255,251,0)" stroke-width="2" stroke-dashoffset="477.69" stroke-dasharray="477.69"/><path id="ewJdoNZPLVf28" d="M632.42,57.968L616.38,96.464L607.2907,120.702L598.9143,95.929L585.5473,57.968L560.2393,57.968L595.3493,144.406L578.9533,182.546L602.8353,182.546L656.4803,57.966Z" filter="url(#ewJdoNZPLVf28-filter)" fill="none" stroke="none" stroke-width="9" stroke-dashoffset="477.69" stroke-dasharray="7,470.69"/></g><g id="ewJdoNZPLVf29" transform="matrix(1 0 0 1 0 -200)"><g id="ewJdoNZPLVf30" transform="matrix(1 0 0 1 0 200)" opacity="0"><path id="ewJdoNZPLVf31" d="M398.87,146.1L398.87,99.155C398.87,87.597,406.1606,77.461,417.897,77.461C429.633,77.461,434.434,87.2411,434.434,98.799L434.434,146.099L456.128,146.099L456.128,98.799C456.128,72.482,443.858,57.189,418.964,57.189C407.584,57.189,397.448,60.7454,389.624,73.193C384.645,61.101,374.154,56.834,363.662,56.834C355.3044,56.834,345.169,60.0348,340.545,68.926L338.9446,58.257L318.8506,58.257L318.8506,146.1L340.5446,146.1L340.5446,99.155C340.5446,87.597,347.4796,77.105,359.2156,77.105C371.1296,77.105,377.1756,87.596,377.1756,99.155L377.1756,146.1Z" transform="matrix(1 0 0 1 -2.7759 0)" fill="rgb(255,255,255)" stroke="none" stroke-width="0.92615"/><path id="ewJdoNZPLVf32" d="M309.02,109.97C312.4686,73.125,293.774,54.611,263.825,54.611C234.784,54.611,216.271,74.213,216.271,101.439C216.271,130.117,234.603,149.175,265.459,149.175C279.072,149.175,294.5,144.4559,303.938,134.655L289.781,120.679C284.6989,125.9426,273.99,129.0282,265.822,129.0282C250.213,129.0282,240.593,121.042,239.141,109.9702ZM239.504,91.638C242.7711,80.022,252.572,74.214,264.552,74.214C277.257,74.214,286.332,80.0221,287.785,91.638Z" fill="rgb(255,255,255)" stroke="none" stroke-width="1.2965"/><path id="ewJdoNZPLVf33" d="M516.34,76.786C530.236,76.786,541.281,86.5844,541.281,102.44C541.281,117.761,530.236,128.272,516.34,128.272C502.622,128.272,490.864,118.2954,490.864,102.44C490.864,87.119,502.622,76.786,516.34,76.786ZM467.704,21.915L467.704,146.445L488.013,146.445L489.4382,134.331C496.208,144.842,507.0752,148.405,517.7642,148.405C543.5962,148.405,563.0152,131.302,563.0152,102.442C563.0152,72.156,543.9532,56.479,518.2992,56.479C509.0352,56.479,494.6052,61.4673,489.4382,70.553L489.4382,21.917Z" transform="matrix(1 0 0 1 -2.7759 0)" fill="rgb(255,255,255)" stroke="none" stroke-width="1.2025"/><path id="ewJdoNZPLVf34" d="M632.42,57.968L616.38,96.464L607.2907,120.702L598.9143,95.929L585.5473,57.968L560.2393,57.968L595.3493,144.406L578.9533,182.546L602.8353,182.546L656.4803,57.966Z" fill="rgb(255,255,255)" stroke="none" stroke-width="4.4556"/></g></g></g><ellipse id="ewJdoNZPLVf35" rx="38.164427" ry="38.164427" transform="matrix(0.708544 0 0 0.702082 478.303387 -72.768441)" filter="url(#ewJdoNZPLVf35-filter)" fill="url(#ewJdoNZPLVf35-fill)" stroke="none" stroke-width="0"/></g></svg>